<?xml version="1.0" encoding="UTF-8" standalone="no"?><!DOCTYPE svg PUBLIC "-//W3C//DTD SVG 1.1//EN" "http://www.w3.org/Graphics/SVG/1.1/DTD/svg11.dtd"><!-- Generated by graphviz version 2.40.1 (20161225.0304)
 --><!-- Pages: 1 --><svg xmlns="http://www.w3.org/2000/svg" xmlns:xlink="http://www.w3.org/1999/xlink" width="1541pt" height="800pt" viewBox="0.00 0.00 1541.35 800.00">
<g id="graph0" class="graph" transform="scale(1 1) rotate(0) translate(4 796)">
<polygon fill="#ffffff" stroke="transparent" points="-4,4 -4,-796 1537.3463,-796 1537.3463,4 -4,4"/>
<!-- 63 -->
<g id="node1" class="node">
<title>63</title>
<ellipse fill="none" stroke="#000000" cx="55.0171" cy="-585" rx="55.0343" ry="18"/>
<text text-anchor="middle" x="55.0171" y="-580.8" font-family="Times,serif" font-size="14.00" fill="#000000">SourceUnit</text>
</g>
<!-- 1 -->
<g id="node2" class="node">
<title>1</title>
<ellipse fill="none" stroke="#000000" cx="230.0164" cy="-612" rx="76.4188" ry="18"/>
<text text-anchor="middle" x="230.0164" y="-607.8" font-family="Times,serif" font-size="14.00" fill="#000000">PragmaDirective</text>
</g>
<!-- 63&#45;&gt;1 -->
<g id="edge1" class="edge">
<title>63-&gt;1</title>
<path fill="none" stroke="#000000" d="M105.1649,-592.7371C120.9532,-595.173 138.739,-597.9171 155.8307,-600.5542"/>
<polygon fill="#000000" stroke="#000000" points="155.3768,-604.0255 165.7935,-602.0913 156.4442,-597.1073 155.3768,-604.0255"/>
</g>
<!-- 62 -->
<g id="node3" class="node">
<title>62</title>
<ellipse fill="none" stroke="#000000" cx="230.0164" cy="-558" rx="83.9643" ry="18"/>
<text text-anchor="middle" x="230.0164" y="-553.8" font-family="Times,serif" font-size="14.00" fill="#000000">ContractDefinition</text>
</g>
<!-- 63&#45;&gt;62 -->
<g id="edge2" class="edge">
<title>63-&gt;62</title>
<path fill="none" stroke="#000000" d="M105.1649,-577.2629C119.5811,-575.0387 135.6625,-572.5575 151.3604,-570.1356"/>
<polygon fill="#000000" stroke="#000000" points="152.25,-573.5398 161.5994,-568.5558 151.1826,-566.6216 152.25,-573.5398"/>
</g>
<!-- 3 -->
<g id="node4" class="node">
<title>3</title>
<ellipse fill="none" stroke="#000000" cx="439.3182" cy="-767" rx="89.1395" ry="18"/>
<text text-anchor="middle" x="439.3182" y="-762.8" font-family="Times,serif" font-size="14.00" fill="#000000">VariableDeclaration</text>
</g>
<!-- 62&#45;&gt;3 -->
<g id="edge3" class="edge">
<title>62-&gt;3</title>
<path fill="none" stroke="#000000" d="M276.9183,-573.0788C296.1555,-579.2635 313.9986,-585 313.9986,-585 313.9986,-585 349.9986,-733 349.9986,-733 349.9986,-733 367.9656,-739.8392 387.7831,-747.3829"/>
<polygon fill="#000000" stroke="#000000" points="386.6829,-750.709 397.2738,-750.9956 389.1732,-744.167 386.6829,-750.709"/>
</g>
<!-- 7 -->
<g id="node5" class="node">
<title>7</title>
<ellipse fill="none" stroke="#ff0000" cx="439.3182" cy="-706" rx="73.0132" ry="18"/>
<text text-anchor="middle" x="439.3182" y="-701.8" font-family="Times,serif" font-size="14.00" fill="#000000">EventDefinition</text>
</g>
<!-- 62&#45;&gt;7 -->
<g id="edge4" class="edge">
<title>62-&gt;7</title>
<path fill="none" stroke="#000000" d="M276.9183,-573.0788C296.1555,-579.2635 313.9986,-585 313.9986,-585 313.9986,-585 349.9986,-666 349.9986,-666 349.9986,-666 372.4404,-676.0501 394.826,-686.0751"/>
<polygon fill="#000000" stroke="#000000" points="393.4596,-689.298 404.0167,-690.1909 396.3206,-682.9094 393.4596,-689.298"/>
</g>
<!-- 9 -->
<g id="node6" class="node">
<title>9</title>
<ellipse fill="none" stroke="#ff0000" cx="439.3182" cy="-639" rx="73.0132" ry="18"/>
<text text-anchor="middle" x="439.3182" y="-634.8" font-family="Times,serif" font-size="14.00" fill="#000000">EventDefinition</text>
</g>
<!-- 62&#45;&gt;9 -->
<g id="edge5" class="edge">
<title>62-&gt;9</title>
<path fill="none" stroke="#000000" d="M276.9183,-573.0788C296.1555,-579.2635 313.9986,-585 313.9986,-585 313.9986,-585 357.6026,-603.7889 393.3696,-619.2008"/>
<polygon fill="#000000" stroke="#000000" points="392.1649,-622.4928 402.7337,-623.2358 394.935,-616.0642 392.1649,-622.4928"/>
</g>
<!-- 19 -->
<g id="node7" class="node">
<title>19</title>
<ellipse fill="none" stroke="#000000" cx="439.3182" cy="-558" rx="85.1314" ry="18"/>
<text text-anchor="middle" x="439.3182" y="-553.8" font-family="Times,serif" font-size="14.00" fill="#000000">FunctionDefinition</text>
</g>
<!-- 62&#45;&gt;19 -->
<g id="edge6" class="edge">
<title>62-&gt;19</title>
<path fill="none" stroke="#000000" d="M314.2427,-558C324.0223,-558 334.0496,-558 343.9646,-558"/>
<polygon fill="#000000" stroke="#000000" points="344.2414,-561.5001 354.2414,-558 344.2413,-554.5001 344.2414,-561.5001"/>
</g>
<!-- 42 -->
<g id="node8" class="node">
<title>42</title>
<ellipse fill="none" stroke="#000000" cx="439.3182" cy="-423" rx="85.1314" ry="18"/>
<text text-anchor="middle" x="439.3182" y="-418.8" font-family="Times,serif" font-size="14.00" fill="#000000">FunctionDefinition</text>
</g>
<!-- 62&#45;&gt;42 -->
<g id="edge7" class="edge">
<title>62-&gt;42</title>
<path fill="none" stroke="#000000" d="M256.5246,-540.9022C294.0085,-516.725 362.5673,-472.5045 404.2334,-445.6297"/>
<polygon fill="#000000" stroke="#000000" points="406.189,-448.5333 412.6954,-440.1717 402.3947,-442.6508 406.189,-448.5333"/>
</g>
<!-- 53 -->
<g id="node9" class="node">
<title>53</title>
<ellipse fill="none" stroke="#000000" cx="439.3182" cy="-261" rx="85.1314" ry="18"/>
<text text-anchor="middle" x="439.3182" y="-256.8" font-family="Times,serif" font-size="14.00" fill="#000000">FunctionDefinition</text>
</g>
<!-- 62&#45;&gt;53 -->
<g id="edge8" class="edge">
<title>62-&gt;53</title>
<path fill="none" stroke="#000000" d="M242.7941,-539.8684C278.4198,-489.3154 378.9729,-346.6302 420.7545,-287.3419"/>
<polygon fill="#000000" stroke="#000000" points="423.8081,-289.0846 426.7077,-278.8943 418.0862,-285.0523 423.8081,-289.0846"/>
</g>
<!-- 61 -->
<g id="node10" class="node">
<title>61</title>
<ellipse fill="none" stroke="#0000ff" cx="439.3182" cy="-99" rx="85.1314" ry="18"/>
<text text-anchor="middle" x="439.3182" y="-94.8" font-family="Times,serif" font-size="14.00" fill="#000000">FunctionDefinition</text>
</g>
<!-- 62&#45;&gt;61 -->
<g id="edge9" class="edge">
<title>62-&gt;61</title>
<path fill="none" stroke="#000000" d="M236.811,-539.652C262.1924,-471.1119 349.9986,-234 349.9986,-234 349.9986,-234 395.9475,-164.5516 421.9325,-125.2771"/>
<polygon fill="#000000" stroke="#000000" points="424.8583,-127.1981 427.4572,-116.927 419.0204,-123.3356 424.8583,-127.1981"/>
</g>
<!-- 2 -->
<g id="node11" class="node">
<title>2</title>
<ellipse fill="none" stroke="#000000" cx="663.085" cy="-774" rx="98.3946" ry="18"/>
<text text-anchor="middle" x="663.085" y="-769.8" font-family="Times,serif" font-size="14.00" fill="#000000">ElementaryTypeName</text>
</g>
<!-- 3&#45;&gt;2 -->
<g id="edge10" class="edge">
<title>3-&gt;2</title>
<path fill="none" stroke="#000000" d="M527.7568,-769.7666C536.9074,-770.0528 546.2771,-770.346 555.606,-770.6378"/>
<polygon fill="#000000" stroke="#000000" points="555.5958,-774.1391 565.7004,-770.9536 555.8148,-767.1425 555.5958,-774.1391"/>
</g>
<!-- 6 -->
<g id="node12" class="node">
<title>6</title>
<ellipse fill="none" stroke="#ff0000" cx="663.085" cy="-720" rx="65.3994" ry="18"/>
<text text-anchor="middle" x="663.085" y="-715.8" font-family="Times,serif" font-size="14.00" fill="#000000">ParameterList</text>
</g>
<!-- 7&#45;&gt;6 -->
<g id="edge11" class="edge">
<title>7-&gt;6</title>
<path fill="none" stroke="#ff0000" d="M510.4269,-710.4489C535.5091,-712.0182 563.7586,-713.7856 589.0749,-715.3695"/>
<polygon fill="#ff0000" stroke="#ff0000" points="589.1569,-718.8814 599.356,-716.0128 589.5941,-711.8951 589.1569,-718.8814"/>
</g>
<!-- 8 -->
<g id="node13" class="node">
<title>8</title>
<ellipse fill="none" stroke="#ff0000" cx="663.085" cy="-666" rx="65.3994" ry="18"/>
<text text-anchor="middle" x="663.085" y="-661.8" font-family="Times,serif" font-size="14.00" fill="#000000">ParameterList</text>
</g>
<!-- 9&#45;&gt;8 -->
<g id="edge12" class="edge">
<title>9-&gt;8</title>
<path fill="none" stroke="#ff0000" d="M505.2453,-646.9549C532.8014,-650.2798 564.8591,-654.1479 592.857,-657.5262"/>
<polygon fill="#ff0000" stroke="#ff0000" points="592.6252,-661.0235 602.9725,-658.7467 593.4638,-654.0739 592.6252,-661.0235"/>
</g>
<!-- 18 -->
<g id="node14" class="node">
<title>18</title>
<ellipse fill="none" stroke="#000000" cx="663.085" cy="-612" rx="34.2084" ry="18"/>
<text text-anchor="middle" x="663.085" y="-607.8" font-family="Times,serif" font-size="14.00" fill="#000000">Block</text>
</g>
<!-- 19&#45;&gt;18 -->
<g id="edge13" class="edge">
<title>19-&gt;18</title>
<path fill="none" stroke="#000000" d="M495.4952,-571.5568C534.7325,-581.0256 586.2419,-593.456 621.745,-602.0237"/>
<polygon fill="#000000" stroke="#000000" points="621.2217,-605.4978 631.7637,-604.4415 622.8638,-598.6932 621.2217,-605.4978"/>
</g>
<!-- 12 -->
<g id="node15" class="node">
<title>12</title>
<ellipse fill="none" stroke="#000000" cx="663.085" cy="-558" rx="65.3994" ry="18"/>
<text text-anchor="middle" x="663.085" y="-553.8" font-family="Times,serif" font-size="14.00" fill="#000000">ParameterList</text>
</g>
<!-- 19&#45;&gt;12 -->
<g id="edge14" class="edge">
<title>19-&gt;12</title>
<path fill="none" stroke="#000000" d="M524.5532,-558C545.2621,-558 567.2643,-558 587.4918,-558"/>
<polygon fill="#000000" stroke="#000000" points="587.5773,-561.5001 597.5773,-558 587.5773,-554.5001 587.5773,-561.5001"/>
</g>
<!-- 13 -->
<g id="node16" class="node">
<title>13</title>
<ellipse fill="none" stroke="#000000" cx="663.085" cy="-504" rx="65.3994" ry="18"/>
<text text-anchor="middle" x="663.085" y="-499.8" font-family="Times,serif" font-size="14.00" fill="#000000">ParameterList</text>
</g>
<!-- 19&#45;&gt;13 -->
<g id="edge15" class="edge">
<title>19-&gt;13</title>
<path fill="none" stroke="#000000" d="M495.4952,-544.4432C528.4632,-536.4873 570.0951,-526.4406 603.6167,-518.3511"/>
<polygon fill="#000000" stroke="#000000" points="604.8411,-521.6561 613.741,-515.9078 603.1989,-514.8515 604.8411,-521.6561"/>
</g>
<!-- 41 -->
<g id="node17" class="node">
<title>41</title>
<ellipse fill="none" stroke="#000000" cx="663.085" cy="-450" rx="34.2084" ry="18"/>
<text text-anchor="middle" x="663.085" y="-445.8" font-family="Times,serif" font-size="14.00" fill="#000000">Block</text>
</g>
<!-- 42&#45;&gt;41 -->
<g id="edge16" class="edge">
<title>42-&gt;41</title>
<path fill="none" stroke="#000000" d="M513.5185,-431.9531C548.6833,-436.1961 589.4713,-441.1177 619.5621,-444.7485"/>
<polygon fill="#000000" stroke="#000000" points="619.3854,-448.2524 629.7327,-445.9757 620.224,-441.3029 619.3854,-448.2524"/>
</g>
<!-- 22 -->
<g id="node18" class="node">
<title>22</title>
<ellipse fill="none" stroke="#000000" cx="663.085" cy="-396" rx="65.3994" ry="18"/>
<text text-anchor="middle" x="663.085" y="-391.8" font-family="Times,serif" font-size="14.00" fill="#000000">ParameterList</text>
</g>
<!-- 42&#45;&gt;22 -->
<g id="edge17" class="edge">
<title>42-&gt;22</title>
<path fill="none" stroke="#000000" d="M513.5185,-414.0469C539.1239,-410.9573 567.7108,-407.508 592.9783,-404.4592"/>
<polygon fill="#000000" stroke="#000000" points="593.708,-407.8966 603.2167,-403.2238 592.8694,-400.947 593.708,-407.8966"/>
</g>
<!-- 23 -->
<g id="node19" class="node">
<title>23</title>
<ellipse fill="none" stroke="#000000" cx="663.085" cy="-342" rx="65.3994" ry="18"/>
<text text-anchor="middle" x="663.085" y="-337.8" font-family="Times,serif" font-size="14.00" fill="#000000">ParameterList</text>
</g>
<!-- 42&#45;&gt;23 -->
<g id="edge18" class="edge">
<title>42-&gt;23</title>
<path fill="none" stroke="#000000" d="M476.9182,-406.7982C513.8318,-390.8922 564.6377,-369 564.6377,-369 564.6377,-369 584.8008,-363.4701 606.877,-357.4155"/>
<polygon fill="#000000" stroke="#000000" points="608.026,-360.7297 616.7441,-354.7094 606.1745,-353.979 608.026,-360.7297"/>
</g>
<!-- 52 -->
<g id="node20" class="node">
<title>52</title>
<ellipse fill="none" stroke="#000000" cx="663.085" cy="-288" rx="34.2084" ry="18"/>
<text text-anchor="middle" x="663.085" y="-283.8" font-family="Times,serif" font-size="14.00" fill="#000000">Block</text>
</g>
<!-- 53&#45;&gt;52 -->
<g id="edge19" class="edge">
<title>53-&gt;52</title>
<path fill="none" stroke="#000000" d="M513.5185,-269.9531C548.6833,-274.1961 589.4713,-279.1177 619.5621,-282.7485"/>
<polygon fill="#000000" stroke="#000000" points="619.3854,-286.2524 629.7327,-283.9757 620.224,-279.3029 619.3854,-286.2524"/>
</g>
<!-- 43 -->
<g id="node21" class="node">
<title>43</title>
<ellipse fill="none" stroke="#000000" cx="663.085" cy="-234" rx="65.3994" ry="18"/>
<text text-anchor="middle" x="663.085" y="-229.8" font-family="Times,serif" font-size="14.00" fill="#000000">ParameterList</text>
</g>
<!-- 53&#45;&gt;43 -->
<g id="edge20" class="edge">
<title>53-&gt;43</title>
<path fill="none" stroke="#000000" d="M513.5185,-252.0469C539.1239,-248.9573 567.7108,-245.508 592.9783,-242.4592"/>
<polygon fill="#000000" stroke="#000000" points="593.708,-245.8966 603.2167,-241.2238 592.8694,-238.947 593.708,-245.8966"/>
</g>
<!-- 44 -->
<g id="node22" class="node">
<title>44</title>
<ellipse fill="none" stroke="#000000" cx="663.085" cy="-180" rx="65.3994" ry="18"/>
<text text-anchor="middle" x="663.085" y="-175.8" font-family="Times,serif" font-size="14.00" fill="#000000">ParameterList</text>
</g>
<!-- 53&#45;&gt;44 -->
<g id="edge21" class="edge">
<title>53-&gt;44</title>
<path fill="none" stroke="#000000" d="M476.9182,-244.7982C513.8318,-228.8922 564.6377,-207 564.6377,-207 564.6377,-207 584.8008,-201.4701 606.877,-195.4155"/>
<polygon fill="#000000" stroke="#000000" points="608.026,-198.7297 616.7441,-192.7094 606.1745,-191.979 608.026,-198.7297"/>
</g>
<!-- 60 -->
<g id="node23" class="node">
<title>60</title>
<ellipse fill="none" stroke="#0000ff" cx="663.085" cy="-126" rx="34.2084" ry="18"/>
<text text-anchor="middle" x="663.085" y="-121.8" font-family="Times,serif" font-size="14.00" fill="#000000">Block</text>
</g>
<!-- 61&#45;&gt;60 -->
<g id="edge22" class="edge">
<title>61-&gt;60</title>
<path fill="none" stroke="#0000ff" d="M513.5185,-107.9531C548.6833,-112.1961 589.4713,-117.1177 619.5621,-120.7485"/>
<polygon fill="#0000ff" stroke="#0000ff" points="619.3854,-124.2524 629.7327,-121.9757 620.224,-117.3029 619.3854,-124.2524"/>
</g>
<!-- 54 -->
<g id="node24" class="node">
<title>54</title>
<ellipse fill="none" stroke="#0000ff" cx="663.085" cy="-72" rx="65.3994" ry="18"/>
<text text-anchor="middle" x="663.085" y="-67.8" font-family="Times,serif" font-size="14.00" fill="#000000">ParameterList</text>
</g>
<!-- 61&#45;&gt;54 -->
<g id="edge23" class="edge">
<title>61-&gt;54</title>
<path fill="none" stroke="#0000ff" d="M513.5185,-90.0469C539.1239,-86.9573 567.7108,-83.508 592.9783,-80.4592"/>
<polygon fill="#0000ff" stroke="#0000ff" points="593.708,-83.8966 603.2167,-79.2238 592.8694,-76.947 593.708,-83.8966"/>
</g>
<!-- 57 -->
<g id="node25" class="node">
<title>57</title>
<ellipse fill="none" stroke="#0000ff" cx="663.085" cy="-18" rx="65.3994" ry="18"/>
<text text-anchor="middle" x="663.085" y="-13.8" font-family="Times,serif" font-size="14.00" fill="#000000">ParameterList</text>
</g>
<!-- 61&#45;&gt;57 -->
<g id="edge24" class="edge">
<title>61-&gt;57</title>
<path fill="none" stroke="#0000ff" d="M476.9182,-82.7982C513.8318,-66.8922 564.6377,-45 564.6377,-45 564.6377,-45 584.8008,-39.4701 606.877,-33.4155"/>
<polygon fill="#0000ff" stroke="#0000ff" points="608.026,-36.7297 616.7441,-30.7094 606.1745,-29.979 608.026,-36.7297"/>
</g>
<!-- 5 -->
<g id="node26" class="node">
<title>5</title>
<ellipse fill="none" stroke="#ff0000" cx="890.0986" cy="-724" rx="89.1395" ry="18"/>
<text text-anchor="middle" x="890.0986" y="-719.8" font-family="Times,serif" font-size="14.00" fill="#000000">VariableDeclaration</text>
</g>
<!-- 6&#45;&gt;5 -->
<g id="edge25" class="edge">
<title>6-&gt;5</title>
<path fill="none" stroke="#ff0000" d="M728.4422,-721.1516C747.8034,-721.4927 769.4589,-721.8743 790.4704,-722.2445"/>
<polygon fill="#ff0000" stroke="#ff0000" points="790.6604,-725.7483 800.7205,-722.4251 790.7837,-718.7494 790.6604,-725.7483"/>
</g>
<!-- 17 -->
<g id="node27" class="node">
<title>17</title>
<ellipse fill="none" stroke="#000000" cx="890.0986" cy="-668" rx="92.6325" ry="18"/>
<text text-anchor="middle" x="890.0986" y="-663.8" font-family="Times,serif" font-size="14.00" fill="#000000">ExpressionStatement</text>
</g>
<!-- 18&#45;&gt;17 -->
<g id="edge26" class="edge">
<title>18-&gt;17</title>
<path fill="none" stroke="#000000" d="M694.1743,-619.6691C727.1828,-627.8117 780.3665,-640.9312 822.9991,-651.4478"/>
<polygon fill="#000000" stroke="#000000" points="822.2078,-654.8575 832.755,-653.8544 823.8844,-648.0612 822.2078,-654.8575"/>
</g>
<!-- 11 -->
<g id="node28" class="node">
<title>11</title>
<ellipse fill="none" stroke="#000000" cx="890.0986" cy="-607" rx="89.1395" ry="18"/>
<text text-anchor="middle" x="890.0986" y="-602.8" font-family="Times,serif" font-size="14.00" fill="#000000">VariableDeclaration</text>
</g>
<!-- 12&#45;&gt;11 -->
<g id="edge27" class="edge">
<title>12-&gt;11</title>
<path fill="none" stroke="#000000" d="M714.5979,-569.1189C745.5546,-575.8007 785.3858,-584.3982 819.2752,-591.713"/>
<polygon fill="#000000" stroke="#000000" points="818.6098,-595.15 829.1232,-593.8387 820.0868,-588.3075 818.6098,-595.15"/>
</g>
<!-- 30 -->
<g id="node29" class="node">
<title>30</title>
<ellipse fill="none" stroke="#00ff00" cx="890.0986" cy="-526" rx="92.6325" ry="18"/>
<text text-anchor="middle" x="890.0986" y="-521.8" font-family="Times,serif" font-size="14.00" fill="#000000">ExpressionStatement</text>
</g>
<!-- 41&#45;&gt;30 -->
<g id="edge28" class="edge">
<title>41-&gt;30</title>
<path fill="none" stroke="#000000" d="M693.4258,-458.3212C722.3519,-466.2544 761.5323,-477 761.5323,-477 761.5323,-477 802.8007,-492.7285 838.5755,-506.3632"/>
<polygon fill="#000000" stroke="#000000" points="837.4103,-509.6646 848.0012,-509.9556 839.9033,-503.1236 837.4103,-509.6646"/>
</g>
<!-- 36 -->
<g id="node30" class="node">
<title>36</title>
<ellipse fill="none" stroke="#000000" cx="890.0986" cy="-450" rx="92.6325" ry="18"/>
<text text-anchor="middle" x="890.0986" y="-445.8" font-family="Times,serif" font-size="14.00" fill="#000000">ExpressionStatement</text>
</g>
<!-- 41&#45;&gt;36 -->
<g id="edge29" class="edge">
<title>41-&gt;36</title>
<path fill="none" stroke="#000000" d="M697.5635,-450C721.515,-450 754.7866,-450 786.9413,-450"/>
<polygon fill="#000000" stroke="#000000" points="787.3286,-453.5001 797.3286,-450 787.3286,-446.5001 787.3286,-453.5001"/>
</g>
<!-- 40 -->
<g id="node31" class="node">
<title>40</title>
<ellipse fill="none" stroke="#ff0000" cx="890.0986" cy="-396" rx="68.371" ry="18"/>
<text text-anchor="middle" x="890.0986" y="-391.8" font-family="Times,serif" font-size="14.00" fill="#000000">EmitStatement</text>
</g>
<!-- 41&#45;&gt;40 -->
<g id="edge30" class="edge">
<title>41-&gt;40</title>
<path fill="none" stroke="#000000" d="M694.6503,-442.4915C729.3493,-434.2376 785.9243,-420.7801 829.2996,-410.4623"/>
<polygon fill="#000000" stroke="#000000" points="830.2602,-413.8316 839.1788,-408.1123 828.6403,-407.0216 830.2602,-413.8316"/>
</g>
<!-- 21 -->
<g id="node32" class="node">
<title>21</title>
<ellipse fill="none" stroke="#000000" cx="890.0986" cy="-342" rx="89.1395" ry="18"/>
<text text-anchor="middle" x="890.0986" y="-337.8" font-family="Times,serif" font-size="14.00" fill="#000000">VariableDeclaration</text>
</g>
<!-- 22&#45;&gt;21 -->
<g id="edge31" class="edge">
<title>22-&gt;21</title>
<path fill="none" stroke="#000000" d="M712.6236,-384.2162C744.8211,-376.5573 787.2146,-366.4731 822.4936,-358.0813"/>
<polygon fill="#000000" stroke="#000000" points="823.3225,-361.4819 832.241,-355.7626 821.7025,-354.6719 823.3225,-361.4819"/>
</g>
<!-- 48 -->
<g id="node33" class="node">
<title>48</title>
<ellipse fill="none" stroke="#000000" cx="890.0986" cy="-283" rx="92.6325" ry="18"/>
<text text-anchor="middle" x="890.0986" y="-278.8" font-family="Times,serif" font-size="14.00" fill="#000000">ExpressionStatement</text>
</g>
<!-- 52&#45;&gt;48 -->
<g id="edge32" class="edge">
<title>52-&gt;48</title>
<path fill="none" stroke="#000000" d="M697.5635,-287.2406C721.7311,-286.7083 755.3878,-285.967 787.8113,-285.2529"/>
<polygon fill="#000000" stroke="#000000" points="787.9018,-288.7518 797.8223,-285.0324 787.7476,-281.7535 787.9018,-288.7518"/>
</g>
<!-- 51 -->
<g id="node34" class="node">
<title>51</title>
<ellipse fill="none" stroke="#ff0000" cx="890.0986" cy="-216" rx="68.371" ry="18"/>
<text text-anchor="middle" x="890.0986" y="-211.8" font-family="Times,serif" font-size="14.00" fill="#000000">EmitStatement</text>
</g>
<!-- 52&#45;&gt;51 -->
<g id="edge33" class="edge">
<title>52-&gt;51</title>
<path fill="none" stroke="#000000" d="M693.4258,-279.6788C722.3519,-271.7456 761.5323,-261 761.5323,-261 761.5323,-261 803.3247,-246.3721 839.2541,-233.7963"/>
<polygon fill="#000000" stroke="#000000" points="840.4295,-237.0932 848.7117,-230.486 838.1169,-230.4862 840.4295,-237.0932"/>
</g>
<!-- 59 -->
<g id="node35" class="node">
<title>59</title>
<ellipse fill="none" stroke="#0000ff" cx="890.0986" cy="-126" rx="37.1386" ry="18"/>
<text text-anchor="middle" x="890.0986" y="-121.8" font-family="Times,serif" font-size="14.00" fill="#000000">Return</text>
</g>
<!-- 60&#45;&gt;59 -->
<g id="edge34" class="edge">
<title>60-&gt;59</title>
<path fill="none" stroke="#0000ff" d="M697.5635,-126C736.2612,-126 799.2881,-126 842.6252,-126"/>
<polygon fill="#0000ff" stroke="#0000ff" points="842.6457,-129.5001 852.6457,-126 842.6457,-122.5001 842.6457,-129.5001"/>
</g>
<!-- 56 -->
<g id="node36" class="node">
<title>56</title>
<ellipse fill="none" stroke="#0000ff" cx="890.0986" cy="-18" rx="89.1395" ry="18"/>
<text text-anchor="middle" x="890.0986" y="-13.8" font-family="Times,serif" font-size="14.00" fill="#000000">VariableDeclaration</text>
</g>
<!-- 57&#45;&gt;56 -->
<g id="edge35" class="edge">
<title>57-&gt;56</title>
<path fill="none" stroke="#0000ff" d="M728.4422,-18C747.8034,-18 769.4589,-18 790.4704,-18"/>
<polygon fill="#0000ff" stroke="#0000ff" points="790.7205,-21.5001 800.7205,-18 790.7205,-14.5001 790.7205,-21.5001"/>
</g>
<!-- 4 -->
<g id="node37" class="node">
<title>4</title>
<ellipse fill="none" stroke="#ff0000" cx="1117.1121" cy="-725" rx="98.3946" ry="18"/>
<text text-anchor="middle" x="1117.1121" y="-720.8" font-family="Times,serif" font-size="14.00" fill="#000000">ElementaryTypeName</text>
</g>
<!-- 5&#45;&gt;4 -->
<g id="edge36" class="edge">
<title>5-&gt;4</title>
<path fill="none" stroke="#ff0000" d="M979.4945,-724.3938C988.9795,-724.4356 998.7,-724.4784 1008.3743,-724.521"/>
<polygon fill="#ff0000" stroke="#ff0000" points="1008.412,-728.0211 1018.4273,-724.5653 1008.4429,-721.0212 1008.412,-728.0211"/>
</g>
<!-- 16 -->
<g id="node38" class="node">
<title>16</title>
<ellipse fill="none" stroke="#000000" cx="1117.1121" cy="-671" rx="57.3418" ry="18"/>
<text text-anchor="middle" x="1117.1121" y="-666.8" font-family="Times,serif" font-size="14.00" fill="#000000">Assignment</text>
</g>
<!-- 17&#45;&gt;16 -->
<g id="edge37" class="edge">
<title>17-&gt;16</title>
<path fill="none" stroke="#000000" d="M982.7611,-669.2245C1005.2028,-669.5211 1028.7703,-669.8326 1049.7902,-670.1103"/>
<polygon fill="#000000" stroke="#000000" points="1049.8429,-673.6112 1059.8883,-670.2438 1049.9354,-666.6119 1049.8429,-673.6112"/>
</g>
<!-- 10 -->
<g id="node39" class="node">
<title>10</title>
<ellipse fill="none" stroke="#000000" cx="1117.1121" cy="-607" rx="98.3946" ry="18"/>
<text text-anchor="middle" x="1117.1121" y="-602.8" font-family="Times,serif" font-size="14.00" fill="#000000">ElementaryTypeName</text>
</g>
<!-- 11&#45;&gt;10 -->
<g id="edge38" class="edge">
<title>11-&gt;10</title>
<path fill="none" stroke="#000000" d="M979.4945,-607C988.9795,-607 998.7,-607 1008.3743,-607"/>
<polygon fill="#000000" stroke="#000000" points="1008.4274,-610.5001 1018.4273,-607 1008.4273,-603.5001 1008.4274,-610.5001"/>
</g>
<!-- 29 -->
<g id="node40" class="node">
<title>29</title>
<ellipse fill="none" stroke="#00ff00" cx="1117.1121" cy="-553" rx="61.434" ry="18"/>
<text text-anchor="middle" x="1117.1121" y="-548.8" font-family="Times,serif" font-size="14.00" fill="#000000">FunctionCall</text>
</g>
<!-- 30&#45;&gt;29 -->
<g id="edge39" class="edge">
<title>30-&gt;29</title>
<path fill="none" stroke="#00ff00" d="M969.1782,-535.4054C995.4951,-538.5354 1024.5393,-541.9898 1049.8733,-545.0029"/>
<polygon fill="#00ff00" stroke="#00ff00" points="1049.7732,-548.5156 1060.1166,-546.2212 1050.6,-541.5646 1049.7732,-548.5156"/>
</g>
<!-- 35 -->
<g id="node41" class="node">
<title>35</title>
<ellipse fill="none" stroke="#000000" cx="1117.1121" cy="-450" rx="57.3418" ry="18"/>
<text text-anchor="middle" x="1117.1121" y="-445.8" font-family="Times,serif" font-size="14.00" fill="#000000">Assignment</text>
</g>
<!-- 36&#45;&gt;35 -->
<g id="edge40" class="edge">
<title>36-&gt;35</title>
<path fill="none" stroke="#000000" d="M982.7611,-450C1005.2028,-450 1028.7703,-450 1049.7902,-450"/>
<polygon fill="#000000" stroke="#000000" points="1049.8883,-453.5001 1059.8883,-450 1049.8882,-446.5001 1049.8883,-453.5001"/>
</g>
<!-- 39 -->
<g id="node42" class="node">
<title>39</title>
<ellipse fill="none" stroke="#ff0000" cx="1117.1121" cy="-396" rx="61.434" ry="18"/>
<text text-anchor="middle" x="1117.1121" y="-391.8" font-family="Times,serif" font-size="14.00" fill="#000000">FunctionCall</text>
</g>
<!-- 40&#45;&gt;39 -->
<g id="edge41" class="edge">
<title>40-&gt;39</title>
<path fill="none" stroke="#ff0000" d="M958.8262,-396C986.2556,-396 1017.84,-396 1045.5452,-396"/>
<polygon fill="#ff0000" stroke="#ff0000" points="1045.5621,-399.5001 1055.5621,-396 1045.562,-392.5001 1045.5621,-399.5001"/>
</g>
<!-- 20 -->
<g id="node43" class="node">
<title>20</title>
<ellipse fill="none" stroke="#000000" cx="1117.1121" cy="-342" rx="98.3946" ry="18"/>
<text text-anchor="middle" x="1117.1121" y="-337.8" font-family="Times,serif" font-size="14.00" fill="#000000">ElementaryTypeName</text>
</g>
<!-- 21&#45;&gt;20 -->
<g id="edge42" class="edge">
<title>21-&gt;20</title>
<path fill="none" stroke="#000000" d="M979.4945,-342C988.9795,-342 998.7,-342 1008.3743,-342"/>
<polygon fill="#000000" stroke="#000000" points="1008.4274,-345.5001 1018.4273,-342 1008.4273,-338.5001 1008.4274,-345.5001"/>
</g>
<!-- 47 -->
<g id="node44" class="node">
<title>47</title>
<ellipse fill="none" stroke="#000000" cx="1117.1121" cy="-283" rx="57.3418" ry="18"/>
<text text-anchor="middle" x="1117.1121" y="-278.8" font-family="Times,serif" font-size="14.00" fill="#000000">Assignment</text>
</g>
<!-- 48&#45;&gt;47 -->
<g id="edge43" class="edge">
<title>48-&gt;47</title>
<path fill="none" stroke="#000000" d="M982.7611,-283C1005.2028,-283 1028.7703,-283 1049.7902,-283"/>
<polygon fill="#000000" stroke="#000000" points="1049.8883,-286.5001 1059.8883,-283 1049.8882,-279.5001 1049.8883,-286.5001"/>
</g>
<!-- 50 -->
<g id="node45" class="node">
<title>50</title>
<ellipse fill="none" stroke="#ff0000" cx="1117.1121" cy="-189" rx="61.434" ry="18"/>
<text text-anchor="middle" x="1117.1121" y="-184.8" font-family="Times,serif" font-size="14.00" fill="#000000">FunctionCall</text>
</g>
<!-- 51&#45;&gt;50 -->
<g id="edge44" class="edge">
<title>51-&gt;50</title>
<path fill="none" stroke="#ff0000" d="M952.732,-208.5507C982.9171,-204.9606 1019.1542,-200.6507 1049.9148,-196.9922"/>
<polygon fill="#ff0000" stroke="#ff0000" points="1050.6034,-200.435 1060.12,-195.7784 1049.7766,-193.484 1050.6034,-200.435"/>
</g>
<!-- 58 -->
<g id="node46" class="node">
<title>58</title>
<ellipse fill="none" stroke="#0000ff" cx="1117.1121" cy="-126" rx="46.9246" ry="18"/>
<text text-anchor="middle" x="1117.1121" y="-121.8" font-family="Times,serif" font-size="14.00" fill="#000000">Identifier</text>
</g>
<!-- 59&#45;&gt;58 -->
<g id="edge45" class="edge">
<title>59-&gt;58</title>
<path fill="none" stroke="#0000ff" d="M927.5852,-126C963.5748,-126 1018.4351,-126 1059.8876,-126"/>
<polygon fill="#0000ff" stroke="#0000ff" points="1060.1178,-129.5001 1070.1178,-126 1060.1178,-122.5001 1060.1178,-129.5001"/>
</g>
<!-- 55 -->
<g id="node47" class="node">
<title>55</title>
<ellipse fill="none" stroke="#0000ff" cx="1117.1121" cy="-18" rx="98.3946" ry="18"/>
<text text-anchor="middle" x="1117.1121" y="-13.8" font-family="Times,serif" font-size="14.00" fill="#000000">ElementaryTypeName</text>
</g>
<!-- 56&#45;&gt;55 -->
<g id="edge46" class="edge">
<title>56-&gt;55</title>
<path fill="none" stroke="#0000ff" d="M979.4945,-18C988.9795,-18 998.7,-18 1008.3743,-18"/>
<polygon fill="#0000ff" stroke="#0000ff" points="1008.4274,-21.5001 1018.4273,-18 1008.4273,-14.5001 1008.4274,-21.5001"/>
</g>
<!-- 14 -->
<g id="node48" class="node">
<title>14</title>
<ellipse fill="none" stroke="#000000" cx="1327.4906" cy="-769" rx="46.9246" ry="18"/>
<text text-anchor="middle" x="1327.4906" y="-764.8" font-family="Times,serif" font-size="14.00" fill="#000000">Identifier</text>
</g>
<!-- 16&#45;&gt;14 -->
<g id="edge47" class="edge">
<title>16-&gt;14</title>
<path fill="none" stroke="#000000" d="M1160.2925,-682.8426C1186.7441,-690.0972 1215.5594,-698 1215.5594,-698 1215.5594,-698 1251.5594,-742 1251.5594,-742 1251.5594,-742 1266.315,-747.2469 1282.8168,-753.1147"/>
<polygon fill="#000000" stroke="#000000" points="1282.0416,-756.5536 1292.6363,-756.6063 1284.3868,-749.9582 1282.0416,-756.5536"/>
</g>
<!-- 15 -->
<g id="node49" class="node">
<title>15</title>
<ellipse fill="none" stroke="#000000" cx="1327.4906" cy="-715" rx="46.9246" ry="18"/>
<text text-anchor="middle" x="1327.4906" y="-710.8" font-family="Times,serif" font-size="14.00" fill="#000000">Identifier</text>
</g>
<!-- 16&#45;&gt;15 -->
<g id="edge48" class="edge">
<title>16-&gt;15</title>
<path fill="none" stroke="#000000" d="M1164.8502,-680.9843C1197.9199,-687.9007 1241.9176,-697.1027 1275.8121,-704.1916"/>
<polygon fill="#000000" stroke="#000000" points="1275.4787,-707.6975 1285.9835,-706.3189 1276.9118,-700.8458 1275.4787,-707.6975"/>
</g>
<!-- 27 -->
<g id="node50" class="node">
<title>27</title>
<ellipse fill="none" stroke="#00ff00" cx="1327.4906" cy="-661" rx="75.8624" ry="18"/>
<text text-anchor="middle" x="1327.4906" y="-656.8" font-family="Times,serif" font-size="14.00" fill="#000000">BinaryOperation</text>
</g>
<!-- 29&#45;&gt;27 -->
<g id="edge49" class="edge">
<title>29-&gt;27</title>
<path fill="none" stroke="#00ff00" d="M1162.0144,-565.3148C1187.9789,-572.4358 1215.5594,-580 1215.5594,-580 1215.5594,-580 1251.5594,-634 1251.5594,-634 1251.5594,-634 1262.2095,-637.787 1275.5324,-642.5244"/>
<polygon fill="#00ff00" stroke="#00ff00" points="1274.4903,-645.8685 1285.085,-645.9212 1276.8355,-639.2731 1274.4903,-645.8685"/>
</g>
<!-- 28 -->
<g id="node51" class="node">
<title>28</title>
<ellipse fill="none" stroke="#00ff00" cx="1327.4906" cy="-607" rx="36.5517" ry="18"/>
<text text-anchor="middle" x="1327.4906" y="-602.8" font-family="Times,serif" font-size="14.00" fill="#000000">Literal</text>
</g>
<!-- 29&#45;&gt;28 -->
<g id="edge50" class="edge">
<title>29-&gt;28</title>
<path fill="none" stroke="#00ff00" d="M1163.541,-564.9174C1199.7747,-574.2179 1249.7043,-587.0338 1284.9162,-596.072"/>
<polygon fill="#00ff00" stroke="#00ff00" points="1284.33,-599.5349 1294.8862,-598.6311 1286.0704,-592.7547 1284.33,-599.5349"/>
</g>
<!-- 24 -->
<g id="node52" class="node">
<title>24</title>
<ellipse fill="none" stroke="#00ff00" cx="1327.4906" cy="-553" rx="46.9246" ry="18"/>
<text text-anchor="middle" x="1327.4906" y="-548.8" font-family="Times,serif" font-size="14.00" fill="#000000">Identifier</text>
</g>
<!-- 29&#45;&gt;24 -->
<g id="edge51" class="edge">
<title>29-&gt;24</title>
<path fill="none" stroke="#00ff00" d="M1178.8111,-553C1207.7504,-553 1242.02,-553 1270.3606,-553"/>
<polygon fill="#00ff00" stroke="#00ff00" points="1270.5129,-556.5001 1280.5128,-553 1270.5128,-549.5001 1270.5129,-556.5001"/>
</g>
<!-- 31 -->
<g id="node53" class="node">
<title>31</title>
<ellipse fill="none" stroke="#000000" cx="1327.4906" cy="-499" rx="46.9246" ry="18"/>
<text text-anchor="middle" x="1327.4906" y="-494.8" font-family="Times,serif" font-size="14.00" fill="#000000">Identifier</text>
</g>
<!-- 35&#45;&gt;31 -->
<g id="edge52" class="edge">
<title>35-&gt;31</title>
<path fill="none" stroke="#000000" d="M1163.2806,-460.7533C1196.9671,-468.5993 1242.594,-479.2264 1277.2034,-487.2874"/>
<polygon fill="#000000" stroke="#000000" points="1276.5751,-490.7347 1287.1084,-489.5944 1278.1631,-483.9172 1276.5751,-490.7347"/>
</g>
<!-- 34 -->
<g id="node54" class="node">
<title>34</title>
<ellipse fill="none" stroke="#000000" cx="1327.4906" cy="-445" rx="75.8624" ry="18"/>
<text text-anchor="middle" x="1327.4906" y="-440.8" font-family="Times,serif" font-size="14.00" fill="#000000">BinaryOperation</text>
</g>
<!-- 35&#45;&gt;34 -->
<g id="edge53" class="edge">
<title>35-&gt;34</title>
<path fill="none" stroke="#000000" d="M1174.3211,-448.6403C1195.0019,-448.1488 1218.8318,-447.5825 1241.4409,-447.0451"/>
<polygon fill="#000000" stroke="#000000" points="1241.8133,-450.5374 1251.7272,-446.8006 1241.6469,-443.5393 1241.8133,-450.5374"/>
</g>
<!-- 38 -->
<g id="node55" class="node">
<title>38</title>
<ellipse fill="none" stroke="#ff0000" cx="1327.4906" cy="-391" rx="46.9246" ry="18"/>
<text text-anchor="middle" x="1327.4906" y="-386.8" font-family="Times,serif" font-size="14.00" fill="#000000">Identifier</text>
</g>
<!-- 39&#45;&gt;38 -->
<g id="edge54" class="edge">
<title>39-&gt;38</title>
<path fill="none" stroke="#ff0000" d="M1178.5278,-394.5404C1207.4762,-393.8523 1241.8079,-393.0364 1270.2124,-392.3613"/>
<polygon fill="#ff0000" stroke="#ff0000" points="1270.4741,-395.8562 1280.3881,-392.1195 1270.3077,-388.8582 1270.4741,-395.8562"/>
</g>
<!-- 37 -->
<g id="node56" class="node">
<title>37</title>
<ellipse fill="none" stroke="#ff0000" cx="1327.4906" cy="-337" rx="46.9246" ry="18"/>
<text text-anchor="middle" x="1327.4906" y="-332.8" font-family="Times,serif" font-size="14.00" fill="#000000">Identifier</text>
</g>
<!-- 39&#45;&gt;37 -->
<g id="edge55" class="edge">
<title>39-&gt;37</title>
<path fill="none" stroke="#ff0000" d="M1162.0144,-383.6852C1187.9789,-376.5642 1215.5594,-369 1215.5594,-369 1215.5594,-369 1249.4021,-359.3247 1279.8695,-350.6144"/>
<polygon fill="#ff0000" stroke="#ff0000" points="1280.9431,-353.9478 1289.5958,-347.8337 1279.0189,-347.2174 1280.9431,-353.9478"/>
</g>
<!-- 45 -->
<g id="node61" class="node">
<title>45</title>
<ellipse fill="none" stroke="#000000" cx="1327.4906" cy="-283" rx="46.9246" ry="18"/>
<text text-anchor="middle" x="1327.4906" y="-278.8" font-family="Times,serif" font-size="14.00" fill="#000000">Identifier</text>
</g>
<!-- 47&#45;&gt;45 -->
<g id="edge60" class="edge">
<title>47-&gt;45</title>
<path fill="none" stroke="#000000" d="M1174.3211,-283C1204.0348,-283 1240.2492,-283 1270.0034,-283"/>
<polygon fill="#000000" stroke="#000000" points="1270.2371,-286.5001 1280.2371,-283 1270.2371,-279.5001 1270.2371,-286.5001"/>
</g>
<!-- 46 -->
<g id="node62" class="node">
<title>46</title>
<ellipse fill="none" stroke="#000000" cx="1327.4906" cy="-229" rx="36.5517" ry="18"/>
<text text-anchor="middle" x="1327.4906" y="-224.8" font-family="Times,serif" font-size="14.00" fill="#000000">Literal</text>
</g>
<!-- 47&#45;&gt;46 -->
<g id="edge61" class="edge">
<title>47-&gt;46</title>
<path fill="none" stroke="#000000" d="M1161.4709,-271.614C1197.9445,-262.2519 1249.2848,-249.0739 1285.1852,-239.859"/>
<polygon fill="#000000" stroke="#000000" points="1286.0605,-243.2478 1294.8763,-237.3714 1284.3201,-236.4676 1286.0605,-243.2478"/>
</g>
<!-- 49 -->
<g id="node63" class="node">
<title>49</title>
<ellipse fill="none" stroke="#ff0000" cx="1327.4906" cy="-175" rx="46.9246" ry="18"/>
<text text-anchor="middle" x="1327.4906" y="-170.8" font-family="Times,serif" font-size="14.00" fill="#000000">Identifier</text>
</g>
<!-- 50&#45;&gt;49 -->
<g id="edge62" class="edge">
<title>50-&gt;49</title>
<path fill="none" stroke="#ff0000" d="M1177.1166,-185.0069C1206.6668,-183.0404 1242.0908,-180.6831 1271.1326,-178.7504"/>
<polygon fill="#ff0000" stroke="#ff0000" points="1271.3732,-182.2423 1281.1187,-178.0859 1270.9084,-175.2577 1271.3732,-182.2423"/>
</g>
<!-- 25 -->
<g id="node57" class="node">
<title>25</title>
<ellipse fill="none" stroke="#00ff00" cx="1486.384" cy="-688" rx="46.9246" ry="18"/>
<text text-anchor="middle" x="1486.384" y="-683.8" font-family="Times,serif" font-size="14.00" fill="#000000">Identifier</text>
</g>
<!-- 27&#45;&gt;25 -->
<g id="edge56" class="edge">
<title>27-&gt;25</title>
<path fill="none" stroke="#00ff00" d="M1389.3779,-671.5162C1403.8224,-673.9707 1419.0821,-676.5637 1433.115,-678.9482"/>
<polygon fill="#00ff00" stroke="#00ff00" points="1432.642,-682.418 1443.0871,-680.6428 1433.8148,-675.5169 1432.642,-682.418"/>
</g>
<!-- 26 -->
<g id="node58" class="node">
<title>26</title>
<ellipse fill="none" stroke="#00ff00" cx="1486.384" cy="-634" rx="36.5517" ry="18"/>
<text text-anchor="middle" x="1486.384" y="-629.8" font-family="Times,serif" font-size="14.00" fill="#000000">Literal</text>
</g>
<!-- 27&#45;&gt;26 -->
<g id="edge57" class="edge">
<title>27-&gt;26</title>
<path fill="none" stroke="#00ff00" d="M1389.3779,-650.4838C1406.6762,-647.5444 1425.1435,-644.4063 1441.2729,-641.6655"/>
<polygon fill="#00ff00" stroke="#00ff00" points="1442.2265,-645.0537 1451.4988,-639.9279 1441.0538,-638.1527 1442.2265,-645.0537"/>
</g>
<!-- 32 -->
<g id="node59" class="node">
<title>32</title>
<ellipse fill="none" stroke="#000000" cx="1486.384" cy="-472" rx="46.9246" ry="18"/>
<text text-anchor="middle" x="1486.384" y="-467.8" font-family="Times,serif" font-size="14.00" fill="#000000">Identifier</text>
</g>
<!-- 34&#45;&gt;32 -->
<g id="edge58" class="edge">
<title>34-&gt;32</title>
<path fill="none" stroke="#000000" d="M1389.3779,-455.5162C1403.8224,-457.9707 1419.0821,-460.5637 1433.115,-462.9482"/>
<polygon fill="#000000" stroke="#000000" points="1432.642,-466.418 1443.0871,-464.6428 1433.8148,-459.5169 1432.642,-466.418"/>
</g>
<!-- 33 -->
<g id="node60" class="node">
<title>33</title>
<ellipse fill="none" stroke="#000000" cx="1486.384" cy="-418" rx="46.9246" ry="18"/>
<text text-anchor="middle" x="1486.384" y="-413.8" font-family="Times,serif" font-size="14.00" fill="#000000">Identifier</text>
</g>
<!-- 34&#45;&gt;33 -->
<g id="edge59" class="edge">
<title>34-&gt;33</title>
<path fill="none" stroke="#000000" d="M1389.3779,-434.4838C1403.8224,-432.0293 1419.0821,-429.4363 1433.115,-427.0518"/>
<polygon fill="#000000" stroke="#000000" points="1433.8148,-430.4831 1443.0871,-425.3572 1432.642,-423.582 1433.8148,-430.4831"/>
</g>
</g>
</svg>